<svg xmlns="http://www.w3.org/2000/svg" viewBox="0 0 640 380" font-family="Archivo, Arial, Helvetica, sans-serif">
  <rect width="640" height="380" fill="#FFFCF5"/>
  <text x="32" y="44" font-size="26" font-weight="800" fill="#17141F">Quando as partidas coincidem</text>
  <g fill="#FFD43B">
    <rect x="54" y="114" width="32" height="152" rx="8"/><rect x="314" y="114" width="32" height="152" rx="8"/><rect x="574" y="114" width="32" height="152" rx="8"/>
  </g>
  <text x="32" y="84" font-size="20" font-weight="700" fill="#17141F">Linha A sai a cada 20 min; linha B, a cada 30 min</text>
  <text x="32" y="150" font-size="22" font-weight="800" fill="#17141F">A</text>
  <line x1="70" y1="142" x2="590" y2="142" stroke="#17141F" stroke-width="3"/>
  <g fill="#8FDCFF" stroke="#17141F" stroke-width="2.5">
    <circle cx="70" cy="142" r="10"/><circle cx="156.67" cy="142" r="10"/><circle cx="243.33" cy="142" r="10"/><circle cx="330" cy="142" r="10"/><circle cx="416.67" cy="142" r="10"/><circle cx="503.33" cy="142" r="10"/><circle cx="590" cy="142" r="10"/>
  </g>
  <text x="32" y="246" font-size="22" font-weight="800" fill="#17141F">B</text>
  <line x1="70" y1="238" x2="590" y2="238" stroke="#17141F" stroke-width="3"/>
  <g fill="#FFA552" stroke="#17141F" stroke-width="2.5">
    <circle cx="70" cy="238" r="10"/><circle cx="200" cy="238" r="10"/><circle cx="330" cy="238" r="10"/><circle cx="460" cy="238" r="10"/><circle cx="590" cy="238" r="10"/>
  </g>
  <line x1="70" y1="290" x2="590" y2="290" stroke="#17141F" stroke-width="3"/>
  <g stroke="#17141F" stroke-width="2">
    <line x1="113.33" y1="285" x2="113.33" y2="295"/><line x1="156.67" y1="285" x2="156.67" y2="295"/><line x1="243.33" y1="285" x2="243.33" y2="295"/><line x1="286.67" y1="285" x2="286.67" y2="295"/>
    <line x1="373.33" y1="285" x2="373.33" y2="295"/><line x1="416.67" y1="285" x2="416.67" y2="295"/><line x1="503.33" y1="285" x2="503.33" y2="295"/><line x1="546.67" y1="285" x2="546.67" y2="295"/>
  </g>
  <g stroke="#17141F" stroke-width="3">
    <line x1="70" y1="280" x2="70" y2="300"/><line x1="200" y1="280" x2="200" y2="300"/><line x1="330" y1="280" x2="330" y2="300"/><line x1="460" y1="280" x2="460" y2="300"/><line x1="590" y1="280" x2="590" y2="300"/>
  </g>
  <g font-size="18" font-weight="700" fill="#17141F" text-anchor="middle">
    <text x="70" y="324">6h00</text><text x="200" y="324">6h30</text><text x="330" y="324">7h00</text><text x="460" y="324">7h30</text><text x="590" y="324">8h00</text>
  </g>
  <text x="32" y="362" font-size="20" font-weight="800" fill="#14804A">Juntas a cada 60 min = MMC(20, 30)</text>
</svg>
